# xmcd
#
# Track frame offsets: 
#        150
#        20017
#        39847
#        56034
#        76349
#        100992
#        121077
#        138832
#        163332
#        181925
#        201627
#        224552
#        255069
#        278192
#        302828
#
# Disc length: 4433 seconds
#
# Revision: 0
# Processed by: cddbd v1.5.2PL0 Copyright (c) Steve Scherf et al.
# Submitted via: ExactAudioCopy v0.95b4
#
DISCID=d3114f0f
DTITLE=Various Artist - Don´s Black Vol 12
DYEAR=1900
DGENRE=
TTITLE0=Queen and Wycleff Jean - Another one bytes the dust
TTITLE1=Xavier Naidoo - Nicht von dieser Welt
TTITLE2=Xavier Naidoo - 20000 Meilen
TTITLE3=Nina Hagen and Thomas D - Solo
TTITLE4=Dr. Deelite - Let the music play
TTITLE5=Spectacoolär - Du bist abgehaun
TTITLE6=3p - License to kill
TTITLE7=In-Mood - Ocean of light
TTITLE8=Wycelff Jean - Gone till november
TTITLE9=G´s Incorporated - On the nightshift
TTITLE10=Sweetbox - Shout
TTITLE11=Nature by Nature - O.P.P.
TTITLE12=N2deep - Back to the hotel
TTITLE13=DJ Quick - Tonight
TTITLE14=Bombast Bros - Coming from the heart
EXTD=
EXTT0=
EXTT1=
EXTT2=
EXTT3=
EXTT4=
EXTT5=
EXTT6=
EXTT7=
EXTT8=
EXTT9=
EXTT10=
EXTT11=
EXTT12=
EXTT13=
EXTT14=
PLAYORDER=
